<mxfile host="Electron" modified="2023-04-13T15:36:09.542Z" agent="Mozilla/5.0 (Windows NT 10.0; Win64; x64) AppleWebKit/537.36 (KHTML, like Gecko) draw.io/21.1.2 Chrome/106.0.5249.199 Electron/21.4.3 Safari/537.36" etag="QhevHiWOROXkqEfbD2td" version="21.1.2" type="device">
  <diagram id="R2lEEEUBdFMjLlhIrx00" name="Page-1">
    <mxGraphModel dx="2330" dy="1990" grid="1" gridSize="10" guides="1" tooltips="1" connect="1" arrows="1" fold="1" page="1" pageScale="1" pageWidth="850" pageHeight="1100" math="0" shadow="0" extFonts="Permanent Marker^https://fonts.googleapis.com/css?family=Permanent+Marker">
      <root>
        <mxCell id="0" />
        <mxCell id="1" parent="0" />
        <mxCell id="Cv5BwyvgVMftu4bguCgR-51" style="edgeStyle=orthogonalEdgeStyle;rounded=0;orthogonalLoop=1;jettySize=auto;html=1;entryX=0.5;entryY=1;entryDx=0;entryDy=0;fontSize=14;" parent="1" source="Z674v17x9XHbPpN-wXhI-3" target="Cv5BwyvgVMftu4bguCgR-46" edge="1">
          <mxGeometry relative="1" as="geometry" />
        </mxCell>
        <mxCell id="Cv5BwyvgVMftu4bguCgR-54" style="edgeStyle=orthogonalEdgeStyle;rounded=0;orthogonalLoop=1;jettySize=auto;html=1;exitX=0.25;exitY=0;exitDx=0;exitDy=0;entryX=1;entryY=0.5;entryDx=0;entryDy=0;fontSize=14;" parent="1" source="Z674v17x9XHbPpN-wXhI-3" target="Cv5BwyvgVMftu4bguCgR-52" edge="1">
          <mxGeometry relative="1" as="geometry" />
        </mxCell>
        <mxCell id="Cv5BwyvgVMftu4bguCgR-60" style="edgeStyle=orthogonalEdgeStyle;rounded=0;orthogonalLoop=1;jettySize=auto;html=1;exitX=0;exitY=0.75;exitDx=0;exitDy=0;entryX=1;entryY=0.5;entryDx=0;entryDy=0;fontSize=14;" parent="1" source="Z674v17x9XHbPpN-wXhI-3" target="Cv5BwyvgVMftu4bguCgR-57" edge="1">
          <mxGeometry relative="1" as="geometry" />
        </mxCell>
        <mxCell id="Cv5BwyvgVMftu4bguCgR-63" style="edgeStyle=orthogonalEdgeStyle;rounded=0;orthogonalLoop=1;jettySize=auto;html=1;exitX=0;exitY=0.5;exitDx=0;exitDy=0;fontSize=14;shape=link;" parent="1" source="Z674v17x9XHbPpN-wXhI-3" target="Cv5BwyvgVMftu4bguCgR-61" edge="1">
          <mxGeometry relative="1" as="geometry" />
        </mxCell>
        <mxCell id="Cv5BwyvgVMftu4bguCgR-68" style="edgeStyle=orthogonalEdgeStyle;rounded=0;orthogonalLoop=1;jettySize=auto;html=1;entryX=1;entryY=0.5;entryDx=0;entryDy=0;fontSize=14;" parent="1" source="Z674v17x9XHbPpN-wXhI-3" target="Cv5BwyvgVMftu4bguCgR-65" edge="1">
          <mxGeometry relative="1" as="geometry">
            <Array as="points">
              <mxPoint x="320" y="540" />
            </Array>
          </mxGeometry>
        </mxCell>
        <mxCell id="Cv5BwyvgVMftu4bguCgR-72" style="edgeStyle=orthogonalEdgeStyle;rounded=0;orthogonalLoop=1;jettySize=auto;html=1;exitX=0.75;exitY=1;exitDx=0;exitDy=0;entryX=0.5;entryY=0;entryDx=0;entryDy=0;fontSize=14;" parent="1" source="Z674v17x9XHbPpN-wXhI-3" target="Cv5BwyvgVMftu4bguCgR-70" edge="1">
          <mxGeometry relative="1" as="geometry" />
        </mxCell>
        <mxCell id="Cv5BwyvgVMftu4bguCgR-77" style="edgeStyle=orthogonalEdgeStyle;rounded=0;orthogonalLoop=1;jettySize=auto;html=1;exitX=1;exitY=0.5;exitDx=0;exitDy=0;entryX=0;entryY=0.5;entryDx=0;entryDy=0;fontSize=14;" parent="1" source="Z674v17x9XHbPpN-wXhI-3" target="Cv5BwyvgVMftu4bguCgR-74" edge="1">
          <mxGeometry relative="1" as="geometry" />
        </mxCell>
        <mxCell id="Cv5BwyvgVMftu4bguCgR-79" style="edgeStyle=orthogonalEdgeStyle;rounded=0;orthogonalLoop=1;jettySize=auto;html=1;exitX=1;exitY=0.75;exitDx=0;exitDy=0;entryX=0.5;entryY=0;entryDx=0;entryDy=0;fontSize=14;" parent="1" source="Z674v17x9XHbPpN-wXhI-3" target="Cv5BwyvgVMftu4bguCgR-78" edge="1">
          <mxGeometry relative="1" as="geometry" />
        </mxCell>
        <mxCell id="Cv5BwyvgVMftu4bguCgR-81" style="edgeStyle=orthogonalEdgeStyle;rounded=0;orthogonalLoop=1;jettySize=auto;html=1;exitX=0.75;exitY=0;exitDx=0;exitDy=0;fontSize=14;" parent="1" source="Z674v17x9XHbPpN-wXhI-3" edge="1">
          <mxGeometry relative="1" as="geometry">
            <mxPoint x="530" y="-40" as="targetPoint" />
            <Array as="points">
              <mxPoint x="360" y="230" />
              <mxPoint x="360" y="40" />
              <mxPoint x="530" y="40" />
            </Array>
          </mxGeometry>
        </mxCell>
        <mxCell id="Cv5BwyvgVMftu4bguCgR-91" style="edgeStyle=orthogonalEdgeStyle;rounded=0;orthogonalLoop=1;jettySize=auto;html=1;exitX=0.75;exitY=0;exitDx=0;exitDy=0;entryX=0;entryY=0.5;entryDx=0;entryDy=0;fontSize=14;shape=link;" parent="1" source="Z674v17x9XHbPpN-wXhI-3" target="Cv5BwyvgVMftu4bguCgR-88" edge="1">
          <mxGeometry relative="1" as="geometry">
            <Array as="points">
              <mxPoint x="370" y="230" />
              <mxPoint x="370" y="110" />
            </Array>
          </mxGeometry>
        </mxCell>
        <mxCell id="Z674v17x9XHbPpN-wXhI-3" value="Prisoner" style="rounded=1;arcSize=10;whiteSpace=wrap;html=1;align=center;fontSize=14;" parent="1" vertex="1">
          <mxGeometry x="290" y="230" width="100" height="40" as="geometry" />
        </mxCell>
        <mxCell id="Cv5BwyvgVMftu4bguCgR-86" style="edgeStyle=orthogonalEdgeStyle;rounded=0;orthogonalLoop=1;jettySize=auto;html=1;exitX=0;exitY=0.5;exitDx=0;exitDy=0;entryX=1;entryY=0.5;entryDx=0;entryDy=0;fontSize=14;" parent="1" source="Z674v17x9XHbPpN-wXhI-5" target="Cv5BwyvgVMftu4bguCgR-82" edge="1">
          <mxGeometry relative="1" as="geometry" />
        </mxCell>
        <mxCell id="Cv5BwyvgVMftu4bguCgR-90" style="edgeStyle=orthogonalEdgeStyle;rounded=0;orthogonalLoop=1;jettySize=auto;html=1;exitX=0.5;exitY=1;exitDx=0;exitDy=0;fontSize=14;entryX=1;entryY=0.5;entryDx=0;entryDy=0;" parent="1" source="Z674v17x9XHbPpN-wXhI-5" target="Cv5BwyvgVMftu4bguCgR-88" edge="1">
          <mxGeometry relative="1" as="geometry">
            <mxPoint x="799.6666666666665" y="90" as="targetPoint" />
          </mxGeometry>
        </mxCell>
        <mxCell id="Z674v17x9XHbPpN-wXhI-5" value="Prison" style="rounded=1;arcSize=10;whiteSpace=wrap;html=1;align=center;fontSize=14;" parent="1" vertex="1">
          <mxGeometry x="750" y="-90" width="100" height="40" as="geometry" />
        </mxCell>
        <mxCell id="Cv5BwyvgVMftu4bguCgR-64" style="edgeStyle=orthogonalEdgeStyle;rounded=0;orthogonalLoop=1;jettySize=auto;html=1;fontSize=14;shape=link;" parent="1" source="Z674v17x9XHbPpN-wXhI-7" target="Cv5BwyvgVMftu4bguCgR-61" edge="1">
          <mxGeometry relative="1" as="geometry" />
        </mxCell>
        <mxCell id="Z674v17x9XHbPpN-wXhI-7" value="Crime" style="rounded=1;arcSize=10;whiteSpace=wrap;html=1;align=center;fontSize=14;" parent="1" vertex="1">
          <mxGeometry x="-200" y="-3" width="100" height="40" as="geometry" />
        </mxCell>
        <mxCell id="Cv5BwyvgVMftu4bguCgR-75" style="edgeStyle=orthogonalEdgeStyle;rounded=0;orthogonalLoop=1;jettySize=auto;html=1;exitX=0;exitY=0.5;exitDx=0;exitDy=0;entryX=1;entryY=0.5;entryDx=0;entryDy=0;fontSize=14;shape=link;" parent="1" source="Z674v17x9XHbPpN-wXhI-9" target="Cv5BwyvgVMftu4bguCgR-74" edge="1">
          <mxGeometry relative="1" as="geometry" />
        </mxCell>
        <mxCell id="Z674v17x9XHbPpN-wXhI-9" value="Health_status" style="shape=ext;margin=3;double=1;whiteSpace=wrap;html=1;align=center;fontSize=14;" parent="1" vertex="1">
          <mxGeometry x="950" y="230" width="100" height="40" as="geometry" />
        </mxCell>
        <mxCell id="Cv5BwyvgVMftu4bguCgR-50" style="edgeStyle=orthogonalEdgeStyle;rounded=0;orthogonalLoop=1;jettySize=auto;html=1;exitX=0.5;exitY=1;exitDx=0;exitDy=0;entryX=0.5;entryY=0;entryDx=0;entryDy=0;fontSize=14;shape=link;" parent="1" source="Z674v17x9XHbPpN-wXhI-10" target="Cv5BwyvgVMftu4bguCgR-46" edge="1">
          <mxGeometry relative="1" as="geometry" />
        </mxCell>
        <mxCell id="Z674v17x9XHbPpN-wXhI-10" value="Marital_status" style="shape=ext;margin=3;double=1;whiteSpace=wrap;html=1;align=center;fontSize=14;" parent="1" vertex="1">
          <mxGeometry x="290" y="-280" width="100" height="40" as="geometry" />
        </mxCell>
        <mxCell id="Cv5BwyvgVMftu4bguCgR-80" style="edgeStyle=orthogonalEdgeStyle;rounded=0;orthogonalLoop=1;jettySize=auto;html=1;exitX=0;exitY=0.5;exitDx=0;exitDy=0;entryX=0.5;entryY=1;entryDx=0;entryDy=0;fontSize=14;shape=link;" parent="1" source="Z674v17x9XHbPpN-wXhI-12" target="Cv5BwyvgVMftu4bguCgR-78" edge="1">
          <mxGeometry relative="1" as="geometry" />
        </mxCell>
        <mxCell id="Z674v17x9XHbPpN-wXhI-12" value="Criminal_case" style="shape=ext;margin=3;double=1;whiteSpace=wrap;html=1;align=center;fontSize=14;" parent="1" vertex="1">
          <mxGeometry x="740" y="500" width="100" height="40" as="geometry" />
        </mxCell>
        <mxCell id="Cv5BwyvgVMftu4bguCgR-58" style="edgeStyle=orthogonalEdgeStyle;rounded=0;orthogonalLoop=1;jettySize=auto;html=1;exitX=1;exitY=0.5;exitDx=0;exitDy=0;entryX=0;entryY=0.5;entryDx=0;entryDy=0;fontSize=14;shape=link;" parent="1" source="Z674v17x9XHbPpN-wXhI-13" target="Cv5BwyvgVMftu4bguCgR-57" edge="1">
          <mxGeometry relative="1" as="geometry" />
        </mxCell>
        <mxCell id="Z674v17x9XHbPpN-wXhI-13" value="Political_situation" style="shape=ext;margin=3;double=1;whiteSpace=wrap;html=1;align=center;fontSize=14;" parent="1" vertex="1">
          <mxGeometry x="-430" y="320" width="130" height="40" as="geometry" />
        </mxCell>
        <mxCell id="Cv5BwyvgVMftu4bguCgR-55" style="edgeStyle=orthogonalEdgeStyle;rounded=0;orthogonalLoop=1;jettySize=auto;html=1;exitX=1;exitY=0.5;exitDx=0;exitDy=0;entryX=0;entryY=0.5;entryDx=0;entryDy=0;fontSize=14;shape=link;" parent="1" source="Z674v17x9XHbPpN-wXhI-14" target="Cv5BwyvgVMftu4bguCgR-52" edge="1">
          <mxGeometry relative="1" as="geometry">
            <Array as="points">
              <mxPoint x="80" y="-140" />
              <mxPoint x="80" />
            </Array>
          </mxGeometry>
        </mxCell>
        <mxCell id="Z674v17x9XHbPpN-wXhI-14" value="Scientific_status" style="shape=ext;margin=3;double=1;whiteSpace=wrap;html=1;align=center;fontSize=14;" parent="1" vertex="1">
          <mxGeometry x="-95" y="-160" width="120" height="40" as="geometry" />
        </mxCell>
        <mxCell id="Z674v17x9XHbPpN-wXhI-15" value="Professional_status" style="shape=ext;margin=3;double=1;whiteSpace=wrap;html=1;align=center;fontSize=14;" parent="1" vertex="1">
          <mxGeometry x="327.5" y="740" width="140" height="40" as="geometry" />
        </mxCell>
        <mxCell id="Cv5BwyvgVMftu4bguCgR-69" style="edgeStyle=orthogonalEdgeStyle;rounded=0;orthogonalLoop=1;jettySize=auto;html=1;exitX=1;exitY=0.5;exitDx=0;exitDy=0;fontSize=14;shape=link;" parent="1" source="Z674v17x9XHbPpN-wXhI-16" target="Cv5BwyvgVMftu4bguCgR-65" edge="1">
          <mxGeometry relative="1" as="geometry" />
        </mxCell>
        <mxCell id="Z674v17x9XHbPpN-wXhI-16" value="Physical_status" style="shape=ext;margin=3;double=1;whiteSpace=wrap;html=1;align=center;fontSize=14;" parent="1" vertex="1">
          <mxGeometry x="-250" y="520" width="120" height="40" as="geometry" />
        </mxCell>
        <mxCell id="Cv5BwyvgVMftu4bguCgR-85" style="edgeStyle=orthogonalEdgeStyle;rounded=0;orthogonalLoop=1;jettySize=auto;html=1;entryX=0.5;entryY=0;entryDx=0;entryDy=0;fontSize=14;shape=link;" parent="1" source="Z674v17x9XHbPpN-wXhI-17" target="Cv5BwyvgVMftu4bguCgR-82" edge="1">
          <mxGeometry relative="1" as="geometry" />
        </mxCell>
        <mxCell id="Z674v17x9XHbPpN-wXhI-17" value="Visitor" style="rounded=1;arcSize=10;whiteSpace=wrap;html=1;align=center;fontSize=14;" parent="1" vertex="1">
          <mxGeometry x="850" y="-230" width="100" height="40" as="geometry" />
        </mxCell>
        <mxCell id="Z674v17x9XHbPpN-wXhI-27" value="p_ID" style="ellipse;whiteSpace=wrap;html=1;align=center;fontStyle=4;fontSize=14;" parent="1" vertex="1">
          <mxGeometry x="425" y="190" width="100" height="40" as="geometry" />
        </mxCell>
        <mxCell id="Z674v17x9XHbPpN-wXhI-38" value="" style="endArrow=none;html=1;rounded=0;fontSize=14;entryX=0;entryY=1;entryDx=0;entryDy=0;" parent="1" target="Z674v17x9XHbPpN-wXhI-53" edge="1">
          <mxGeometry relative="1" as="geometry">
            <mxPoint x="380" y="270" as="sourcePoint" />
            <mxPoint x="394.64466094067257" y="104.14213562373106" as="targetPoint" />
          </mxGeometry>
        </mxCell>
        <mxCell id="Z674v17x9XHbPpN-wXhI-39" value="" style="endArrow=none;html=1;rounded=0;fontSize=14;entryX=0;entryY=1;entryDx=0;entryDy=0;exitX=1;exitY=1;exitDx=0;exitDy=0;" parent="1" source="Z674v17x9XHbPpN-wXhI-3" target="Z674v17x9XHbPpN-wXhI-52" edge="1">
          <mxGeometry relative="1" as="geometry">
            <mxPoint x="390" y="230" as="sourcePoint" />
            <mxPoint x="434.64466094067257" y="154.14213562373106" as="targetPoint" />
          </mxGeometry>
        </mxCell>
        <mxCell id="Z674v17x9XHbPpN-wXhI-40" value="" style="endArrow=none;html=1;rounded=0;fontSize=14;entryX=0;entryY=0.5;entryDx=0;entryDy=0;exitX=1;exitY=0.25;exitDx=0;exitDy=0;" parent="1" source="Z674v17x9XHbPpN-wXhI-3" target="Z674v17x9XHbPpN-wXhI-27" edge="1">
          <mxGeometry relative="1" as="geometry">
            <mxPoint x="400" y="240" as="sourcePoint" />
            <mxPoint x="444.64466094067257" y="164.14213562373106" as="targetPoint" />
          </mxGeometry>
        </mxCell>
        <mxCell id="Z674v17x9XHbPpN-wXhI-41" value="" style="endArrow=none;html=1;rounded=0;fontSize=14;entryX=0;entryY=0.5;entryDx=0;entryDy=0;exitX=1;exitY=1;exitDx=0;exitDy=0;" parent="1" source="Z674v17x9XHbPpN-wXhI-3" target="Z674v17x9XHbPpN-wXhI-59" edge="1">
          <mxGeometry relative="1" as="geometry">
            <mxPoint x="400" y="250" as="sourcePoint" />
            <mxPoint x="414.64466094067257" y="305.85786437626894" as="targetPoint" />
          </mxGeometry>
        </mxCell>
        <mxCell id="Z674v17x9XHbPpN-wXhI-42" value="" style="endArrow=none;html=1;rounded=0;fontSize=14;entryX=1;entryY=0.5;entryDx=0;entryDy=0;exitX=0;exitY=1;exitDx=0;exitDy=0;" parent="1" source="Z674v17x9XHbPpN-wXhI-3" target="Z674v17x9XHbPpN-wXhI-57" edge="1">
          <mxGeometry relative="1" as="geometry">
            <mxPoint x="400" y="280" as="sourcePoint" />
            <mxPoint x="269.4974746830585" y="305.85786437626894" as="targetPoint" />
          </mxGeometry>
        </mxCell>
        <mxCell id="Z674v17x9XHbPpN-wXhI-43" value="" style="endArrow=none;html=1;rounded=0;fontSize=14;entryX=1;entryY=0;entryDx=0;entryDy=0;exitX=0.25;exitY=1;exitDx=0;exitDy=0;" parent="1" source="Z674v17x9XHbPpN-wXhI-3" target="Z674v17x9XHbPpN-wXhI-58" edge="1">
          <mxGeometry relative="1" as="geometry">
            <mxPoint x="410" y="290" as="sourcePoint" />
            <mxPoint x="295.9619407771256" y="365.8578643762694" as="targetPoint" />
          </mxGeometry>
        </mxCell>
        <mxCell id="Z674v17x9XHbPpN-wXhI-44" value="" style="endArrow=none;html=1;rounded=0;fontSize=14;entryX=1;entryY=0.5;entryDx=0;entryDy=0;exitX=0;exitY=0.25;exitDx=0;exitDy=0;" parent="1" source="Z674v17x9XHbPpN-wXhI-3" target="Z674v17x9XHbPpN-wXhI-56" edge="1">
          <mxGeometry relative="1" as="geometry">
            <mxPoint x="300" y="240" as="sourcePoint" />
            <mxPoint x="255.35533905932743" y="224.14213562373106" as="targetPoint" />
          </mxGeometry>
        </mxCell>
        <mxCell id="Z674v17x9XHbPpN-wXhI-45" value="" style="endArrow=none;html=1;rounded=0;fontSize=14;entryX=1;entryY=0.5;entryDx=0;entryDy=0;exitX=0;exitY=0;exitDx=0;exitDy=0;" parent="1" source="Z674v17x9XHbPpN-wXhI-3" target="Z674v17x9XHbPpN-wXhI-55" edge="1">
          <mxGeometry relative="1" as="geometry">
            <mxPoint x="310" y="290" as="sourcePoint" />
            <mxPoint x="245.96194077712562" y="164.14213562373106" as="targetPoint" />
          </mxGeometry>
        </mxCell>
        <mxCell id="Z674v17x9XHbPpN-wXhI-47" value="" style="endArrow=none;html=1;rounded=0;fontSize=14;entryX=1;entryY=1;entryDx=0;entryDy=0;exitX=0;exitY=0;exitDx=0;exitDy=0;" parent="1" source="Z674v17x9XHbPpN-wXhI-3" target="Z674v17x9XHbPpN-wXhI-54" edge="1">
          <mxGeometry relative="1" as="geometry">
            <mxPoint x="335" y="250" as="sourcePoint" />
            <mxPoint x="250" y="110" as="targetPoint" />
          </mxGeometry>
        </mxCell>
        <mxCell id="Z674v17x9XHbPpN-wXhI-48" value="pr_ID" style="ellipse;whiteSpace=wrap;html=1;align=center;fontStyle=4;fontSize=14;" parent="1" vertex="1">
          <mxGeometry x="870" y="-150" width="100" height="40" as="geometry" />
        </mxCell>
        <mxCell id="Z674v17x9XHbPpN-wXhI-49" value="pr_Name" style="ellipse;whiteSpace=wrap;html=1;align=center;fontSize=14;" parent="1" vertex="1">
          <mxGeometry x="900" y="-88.5" width="100" height="40" as="geometry" />
        </mxCell>
        <mxCell id="Z674v17x9XHbPpN-wXhI-50" value="pr_address" style="ellipse;whiteSpace=wrap;html=1;align=center;fontSize=14;" parent="1" vertex="1">
          <mxGeometry x="720" y="-170" width="100" height="40" as="geometry" />
        </mxCell>
        <mxCell id="Z674v17x9XHbPpN-wXhI-51" value="Prisoners_num" style="ellipse;whiteSpace=wrap;html=1;align=center;fontSize=14;" parent="1" vertex="1">
          <mxGeometry x="870" y="-20" width="120" height="40" as="geometry" />
        </mxCell>
        <mxCell id="Z674v17x9XHbPpN-wXhI-52" value="p_RecfullName" style="ellipse;whiteSpace=wrap;html=1;align=center;fontSize=14;" parent="1" vertex="1">
          <mxGeometry x="457.5" y="320" width="120" height="40" as="geometry" />
        </mxCell>
        <mxCell id="Z674v17x9XHbPpN-wXhI-53" value="p_lname" style="ellipse;whiteSpace=wrap;html=1;align=center;fontSize=14;" parent="1" vertex="1">
          <mxGeometry x="400" y="360" width="100" height="40" as="geometry" />
        </mxCell>
        <mxCell id="Z674v17x9XHbPpN-wXhI-54" value="p_fName" style="ellipse;whiteSpace=wrap;html=1;align=center;fontSize=14;" parent="1" vertex="1">
          <mxGeometry x="142.5" y="100" width="100" height="40" as="geometry" />
        </mxCell>
        <mxCell id="Z674v17x9XHbPpN-wXhI-55" value="conf_type" style="ellipse;whiteSpace=wrap;html=1;align=center;fontSize=14;" parent="1" vertex="1">
          <mxGeometry x="130" y="150" width="100" height="40" as="geometry" />
        </mxCell>
        <mxCell id="Z674v17x9XHbPpN-wXhI-56" value="Received_date" style="ellipse;whiteSpace=wrap;html=1;align=center;fontSize=14;" parent="1" vertex="1">
          <mxGeometry x="132.5" y="200" width="110" height="40" as="geometry" />
        </mxCell>
        <mxCell id="Z674v17x9XHbPpN-wXhI-57" value="Exit_date" style="ellipse;whiteSpace=wrap;html=1;align=center;fontSize=14;" parent="1" vertex="1">
          <mxGeometry x="155" y="290" width="110" height="40" as="geometry" />
        </mxCell>
        <mxCell id="Z674v17x9XHbPpN-wXhI-58" value="Exdate_good_idol" style="ellipse;whiteSpace=wrap;html=1;align=center;fontSize=14;" parent="1" vertex="1">
          <mxGeometry x="150" y="350" width="140" height="40" as="geometry" />
        </mxCell>
        <mxCell id="Z674v17x9XHbPpN-wXhI-59" value="work_type" style="ellipse;whiteSpace=wrap;html=1;align=center;fontSize=14;" parent="1" vertex="1">
          <mxGeometry x="467.5" y="270" width="110" height="40" as="geometry" />
        </mxCell>
        <mxCell id="Z674v17x9XHbPpN-wXhI-60" value="" style="endArrow=none;html=1;rounded=0;fontSize=14;entryX=1;entryY=0.25;entryDx=0;entryDy=0;exitX=0;exitY=0.5;exitDx=0;exitDy=0;" parent="1" source="Z674v17x9XHbPpN-wXhI-48" target="Z674v17x9XHbPpN-wXhI-5" edge="1">
          <mxGeometry relative="1" as="geometry">
            <mxPoint x="640" y="-58.5" as="sourcePoint" />
            <mxPoint x="800" y="-58.5" as="targetPoint" />
          </mxGeometry>
        </mxCell>
        <mxCell id="Z674v17x9XHbPpN-wXhI-61" value="" style="endArrow=none;html=1;rounded=0;fontSize=14;entryX=1;entryY=0.5;entryDx=0;entryDy=0;exitX=0;exitY=0.5;exitDx=0;exitDy=0;" parent="1" source="Z674v17x9XHbPpN-wXhI-49" target="Z674v17x9XHbPpN-wXhI-5" edge="1">
          <mxGeometry relative="1" as="geometry">
            <mxPoint x="900" y="-48.5" as="sourcePoint" />
            <mxPoint x="850" y="-48.5" as="targetPoint" />
          </mxGeometry>
        </mxCell>
        <mxCell id="Z674v17x9XHbPpN-wXhI-62" value="" style="endArrow=none;html=1;rounded=0;fontSize=14;entryX=0.75;entryY=1;entryDx=0;entryDy=0;exitX=0;exitY=0;exitDx=0;exitDy=0;" parent="1" source="Z674v17x9XHbPpN-wXhI-51" target="Z674v17x9XHbPpN-wXhI-5" edge="1">
          <mxGeometry relative="1" as="geometry">
            <mxPoint x="904.6446609406726" y="-2.6421356237310647" as="sourcePoint" />
            <mxPoint x="850" y="-38.5" as="targetPoint" />
          </mxGeometry>
        </mxCell>
        <mxCell id="Z674v17x9XHbPpN-wXhI-63" value="" style="endArrow=none;html=1;rounded=0;fontSize=14;exitX=0.5;exitY=1;exitDx=0;exitDy=0;" parent="1" source="Z674v17x9XHbPpN-wXhI-50" target="Z674v17x9XHbPpN-wXhI-5" edge="1">
          <mxGeometry relative="1" as="geometry">
            <mxPoint x="914.6446609406726" y="7.357864376268935" as="sourcePoint" />
            <mxPoint x="860" y="-28.5" as="targetPoint" />
          </mxGeometry>
        </mxCell>
        <mxCell id="Z674v17x9XHbPpN-wXhI-64" value="hs_ID" style="ellipse;whiteSpace=wrap;html=1;align=center;fontStyle=4;fontSize=14;" parent="1" vertex="1">
          <mxGeometry x="1080" y="180" width="100" height="40" as="geometry" />
        </mxCell>
        <mxCell id="Z674v17x9XHbPpN-wXhI-66" value="disease" style="ellipse;whiteSpace=wrap;html=1;align=center;fontSize=14;" parent="1" vertex="1">
          <mxGeometry x="1110" y="260" width="100" height="40" as="geometry" />
        </mxCell>
        <mxCell id="Z674v17x9XHbPpN-wXhI-68" value="" style="endArrow=none;html=1;rounded=0;fontSize=14;entryX=1;entryY=0;entryDx=0;entryDy=0;exitX=0;exitY=1;exitDx=0;exitDy=0;" parent="1" source="Z674v17x9XHbPpN-wXhI-64" target="Z674v17x9XHbPpN-wXhI-9" edge="1">
          <mxGeometry relative="1" as="geometry">
            <mxPoint x="920" y="240" as="sourcePoint" />
            <mxPoint x="1080" y="240" as="targetPoint" />
          </mxGeometry>
        </mxCell>
        <mxCell id="Z674v17x9XHbPpN-wXhI-69" value="" style="endArrow=none;html=1;rounded=0;fontSize=14;entryX=1;entryY=0.5;entryDx=0;entryDy=0;exitX=0;exitY=0.5;exitDx=0;exitDy=0;" parent="1" source="Z674v17x9XHbPpN-wXhI-66" target="Z674v17x9XHbPpN-wXhI-9" edge="1">
          <mxGeometry relative="1" as="geometry">
            <mxPoint x="1104.6446609406726" y="224.14213562373106" as="sourcePoint" />
            <mxPoint x="1060" y="240" as="targetPoint" />
          </mxGeometry>
        </mxCell>
        <mxCell id="Z674v17x9XHbPpN-wXhI-71" value="ms_ID" style="ellipse;whiteSpace=wrap;html=1;align=center;fontStyle=4;fontSize=14;" parent="1" vertex="1">
          <mxGeometry x="290" y="-390" width="100" height="40" as="geometry" />
        </mxCell>
        <mxCell id="Z674v17x9XHbPpN-wXhI-72" value="single_or_married" style="ellipse;whiteSpace=wrap;html=1;align=center;fontSize=14;" parent="1" vertex="1">
          <mxGeometry x="142.5" y="-360" width="135" height="40" as="geometry" />
        </mxCell>
        <mxCell id="Z674v17x9XHbPpN-wXhI-73" value="family_members" style="ellipse;whiteSpace=wrap;html=1;align=center;fontSize=14;" parent="1" vertex="1">
          <mxGeometry x="400" y="-370" width="135" height="40" as="geometry" />
        </mxCell>
        <mxCell id="Z674v17x9XHbPpN-wXhI-75" value="social_behavior" style="ellipse;whiteSpace=wrap;html=1;align=center;fontSize=14;" parent="1" vertex="1">
          <mxGeometry x="422.5" y="-290" width="135" height="40" as="geometry" />
        </mxCell>
        <mxCell id="Z674v17x9XHbPpN-wXhI-76" value="cc_ID" style="ellipse;whiteSpace=wrap;html=1;align=center;fontStyle=4;fontSize=14;" parent="1" vertex="1">
          <mxGeometry x="820" y="420" width="100" height="40" as="geometry" />
        </mxCell>
        <mxCell id="Z674v17x9XHbPpN-wXhI-77" value="verdict_date" style="ellipse;whiteSpace=wrap;html=1;align=center;fontSize=14;" parent="1" vertex="1">
          <mxGeometry x="870" y="540" width="110" height="40" as="geometry" />
        </mxCell>
        <mxCell id="Z674v17x9XHbPpN-wXhI-78" value="previous_crimes" style="ellipse;whiteSpace=wrap;html=1;align=center;fontSize=14;" parent="1" vertex="1">
          <mxGeometry x="885" y="480" width="130" height="40" as="geometry" />
        </mxCell>
        <mxCell id="Z674v17x9XHbPpN-wXhI-79" value="verdict_duration" style="ellipse;whiteSpace=wrap;html=1;align=center;fontSize=14;" parent="1" vertex="1">
          <mxGeometry x="760" y="580" width="110" height="40" as="geometry" />
        </mxCell>
        <mxCell id="Z674v17x9XHbPpN-wXhI-80" value="" style="endArrow=none;html=1;rounded=0;fontSize=14;exitX=0.75;exitY=0;exitDx=0;exitDy=0;entryX=0;entryY=1;entryDx=0;entryDy=0;" parent="1" source="Z674v17x9XHbPpN-wXhI-12" target="Z674v17x9XHbPpN-wXhI-76" edge="1">
          <mxGeometry relative="1" as="geometry">
            <mxPoint x="890" y="620" as="sourcePoint" />
            <mxPoint x="1050" y="620" as="targetPoint" />
          </mxGeometry>
        </mxCell>
        <mxCell id="Z674v17x9XHbPpN-wXhI-81" value="" style="endArrow=none;html=1;rounded=0;fontSize=14;exitX=1;exitY=0.25;exitDx=0;exitDy=0;entryX=0;entryY=0.5;entryDx=0;entryDy=0;" parent="1" source="Z674v17x9XHbPpN-wXhI-12" target="Z674v17x9XHbPpN-wXhI-78" edge="1">
          <mxGeometry relative="1" as="geometry">
            <mxPoint x="825" y="510" as="sourcePoint" />
            <mxPoint x="844.6446609406726" y="464.14213562373106" as="targetPoint" />
          </mxGeometry>
        </mxCell>
        <mxCell id="Z674v17x9XHbPpN-wXhI-82" value="" style="endArrow=none;html=1;rounded=0;fontSize=14;exitX=1;exitY=0.75;exitDx=0;exitDy=0;entryX=0;entryY=0.5;entryDx=0;entryDy=0;" parent="1" source="Z674v17x9XHbPpN-wXhI-12" target="Z674v17x9XHbPpN-wXhI-77" edge="1">
          <mxGeometry relative="1" as="geometry">
            <mxPoint x="850" y="520" as="sourcePoint" />
            <mxPoint x="895" y="510" as="targetPoint" />
          </mxGeometry>
        </mxCell>
        <mxCell id="Z674v17x9XHbPpN-wXhI-84" value="" style="endArrow=none;html=1;rounded=0;fontSize=14;exitX=0.75;exitY=1;exitDx=0;exitDy=0;entryX=0.5;entryY=0;entryDx=0;entryDy=0;" parent="1" source="Z674v17x9XHbPpN-wXhI-12" target="Z674v17x9XHbPpN-wXhI-79" edge="1">
          <mxGeometry relative="1" as="geometry">
            <mxPoint x="860" y="530" as="sourcePoint" />
            <mxPoint x="905" y="520" as="targetPoint" />
          </mxGeometry>
        </mxCell>
        <mxCell id="Z674v17x9XHbPpN-wXhI-85" value="" style="endArrow=none;html=1;rounded=0;fontSize=14;exitX=0.5;exitY=0;exitDx=0;exitDy=0;entryX=0.5;entryY=1;entryDx=0;entryDy=0;" parent="1" source="Z674v17x9XHbPpN-wXhI-10" target="Z674v17x9XHbPpN-wXhI-71" edge="1">
          <mxGeometry relative="1" as="geometry">
            <mxPoint x="330" y="-290" as="sourcePoint" />
            <mxPoint x="490" y="-290" as="targetPoint" />
          </mxGeometry>
        </mxCell>
        <mxCell id="Z674v17x9XHbPpN-wXhI-86" value="" style="endArrow=none;html=1;rounded=0;fontSize=14;exitX=0;exitY=0;exitDx=0;exitDy=0;entryX=0.5;entryY=1;entryDx=0;entryDy=0;" parent="1" source="Z674v17x9XHbPpN-wXhI-10" target="Z674v17x9XHbPpN-wXhI-72" edge="1">
          <mxGeometry relative="1" as="geometry">
            <mxPoint x="350" y="-270" as="sourcePoint" />
            <mxPoint x="350" y="-340" as="targetPoint" />
          </mxGeometry>
        </mxCell>
        <mxCell id="Z674v17x9XHbPpN-wXhI-87" value="" style="endArrow=none;html=1;rounded=0;fontSize=14;exitX=1;exitY=0;exitDx=0;exitDy=0;entryX=0.5;entryY=1;entryDx=0;entryDy=0;" parent="1" source="Z674v17x9XHbPpN-wXhI-10" target="Z674v17x9XHbPpN-wXhI-73" edge="1">
          <mxGeometry relative="1" as="geometry">
            <mxPoint x="300" y="-270" as="sourcePoint" />
            <mxPoint x="220" y="-310" as="targetPoint" />
          </mxGeometry>
        </mxCell>
        <mxCell id="Z674v17x9XHbPpN-wXhI-88" value="" style="endArrow=none;html=1;rounded=0;fontSize=14;exitX=1;exitY=0.5;exitDx=0;exitDy=0;entryX=0;entryY=0.5;entryDx=0;entryDy=0;" parent="1" source="Z674v17x9XHbPpN-wXhI-10" target="Z674v17x9XHbPpN-wXhI-75" edge="1">
          <mxGeometry relative="1" as="geometry">
            <mxPoint x="310" y="-260" as="sourcePoint" />
            <mxPoint x="230" y="-300" as="targetPoint" />
          </mxGeometry>
        </mxCell>
        <mxCell id="Cv5BwyvgVMftu4bguCgR-1" value="&lt;font style=&quot;font-size: 14px;&quot;&gt;pols_ID&lt;/font&gt;" style="ellipse;whiteSpace=wrap;html=1;align=center;fontStyle=4;" parent="1" vertex="1">
          <mxGeometry x="-490" y="230" width="100" height="40" as="geometry" />
        </mxCell>
        <mxCell id="Cv5BwyvgVMftu4bguCgR-2" value="&lt;font style=&quot;font-size: 14px;&quot;&gt;political_prisoner&lt;/font&gt;" style="ellipse;whiteSpace=wrap;html=1;align=center;" parent="1" vertex="1">
          <mxGeometry x="-620" y="280" width="130" height="40" as="geometry" />
        </mxCell>
        <mxCell id="Cv5BwyvgVMftu4bguCgR-3" value="&lt;font style=&quot;font-size: 14px;&quot;&gt;Secret_org_member&lt;/font&gt;" style="ellipse;whiteSpace=wrap;html=1;align=center;" parent="1" vertex="1">
          <mxGeometry x="-550" y="400" width="150" height="40" as="geometry" />
        </mxCell>
        <mxCell id="Cv5BwyvgVMftu4bguCgR-4" value="&lt;font style=&quot;font-size: 14px;&quot;&gt;known_in_stsecurity&lt;/font&gt;" style="ellipse;whiteSpace=wrap;html=1;align=center;" parent="1" vertex="1">
          <mxGeometry x="-610" y="340" width="150" height="40" as="geometry" />
        </mxCell>
        <mxCell id="Cv5BwyvgVMftu4bguCgR-5" value="" style="endArrow=none;html=1;rounded=0;fontSize=14;exitX=0.25;exitY=0;exitDx=0;exitDy=0;entryX=0.5;entryY=1;entryDx=0;entryDy=0;" parent="1" source="Z674v17x9XHbPpN-wXhI-13" target="Cv5BwyvgVMftu4bguCgR-1" edge="1">
          <mxGeometry relative="1" as="geometry">
            <mxPoint x="-390" y="310" as="sourcePoint" />
            <mxPoint x="-230" y="310" as="targetPoint" />
          </mxGeometry>
        </mxCell>
        <mxCell id="Cv5BwyvgVMftu4bguCgR-6" value="" style="endArrow=none;html=1;rounded=0;fontSize=14;exitX=0;exitY=0.25;exitDx=0;exitDy=0;" parent="1" source="Z674v17x9XHbPpN-wXhI-13" target="Cv5BwyvgVMftu4bguCgR-2" edge="1">
          <mxGeometry relative="1" as="geometry">
            <mxPoint x="-387.5" y="330" as="sourcePoint" />
            <mxPoint x="-430" y="280" as="targetPoint" />
          </mxGeometry>
        </mxCell>
        <mxCell id="Cv5BwyvgVMftu4bguCgR-7" value="" style="endArrow=none;html=1;rounded=0;fontSize=14;exitX=0;exitY=0.75;exitDx=0;exitDy=0;entryX=1;entryY=0.5;entryDx=0;entryDy=0;" parent="1" source="Z674v17x9XHbPpN-wXhI-13" target="Cv5BwyvgVMftu4bguCgR-4" edge="1">
          <mxGeometry relative="1" as="geometry">
            <mxPoint x="-420" y="340" as="sourcePoint" />
            <mxPoint x="-493.74735010884365" y="322.30063597387743" as="targetPoint" />
          </mxGeometry>
        </mxCell>
        <mxCell id="Cv5BwyvgVMftu4bguCgR-8" value="" style="endArrow=none;html=1;rounded=0;fontSize=14;exitX=0.25;exitY=1;exitDx=0;exitDy=0;entryX=0.5;entryY=0;entryDx=0;entryDy=0;" parent="1" source="Z674v17x9XHbPpN-wXhI-13" target="Cv5BwyvgVMftu4bguCgR-3" edge="1">
          <mxGeometry relative="1" as="geometry">
            <mxPoint x="-410" y="350" as="sourcePoint" />
            <mxPoint x="-483.74735010884365" y="332.30063597387743" as="targetPoint" />
          </mxGeometry>
        </mxCell>
        <mxCell id="Cv5BwyvgVMftu4bguCgR-9" value="&lt;font style=&quot;font-size: 14px;&quot;&gt;sc_ID&lt;/font&gt;" style="ellipse;whiteSpace=wrap;html=1;align=center;fontStyle=4;" parent="1" vertex="1">
          <mxGeometry x="-170" y="-240" width="100" height="40" as="geometry" />
        </mxCell>
        <mxCell id="Cv5BwyvgVMftu4bguCgR-10" value="Qualifications" style="ellipse;whiteSpace=wrap;html=1;align=center;fontSize=14;" parent="1" vertex="1">
          <mxGeometry x="-280" y="-230" width="100" height="40" as="geometry" />
        </mxCell>
        <mxCell id="Cv5BwyvgVMftu4bguCgR-11" value="still_study" style="ellipse;whiteSpace=wrap;html=1;align=center;fontSize=14;" parent="1" vertex="1">
          <mxGeometry x="-270" y="-170" width="100" height="40" as="geometry" />
        </mxCell>
        <mxCell id="Cv5BwyvgVMftu4bguCgR-12" value="" style="endArrow=none;html=1;rounded=0;fontSize=14;exitX=0.25;exitY=0;exitDx=0;exitDy=0;entryX=0.5;entryY=1;entryDx=0;entryDy=0;" parent="1" source="Z674v17x9XHbPpN-wXhI-14" target="Cv5BwyvgVMftu4bguCgR-9" edge="1">
          <mxGeometry relative="1" as="geometry">
            <mxPoint x="-170" y="-130" as="sourcePoint" />
            <mxPoint x="-10" y="-130" as="targetPoint" />
          </mxGeometry>
        </mxCell>
        <mxCell id="Cv5BwyvgVMftu4bguCgR-13" value="" style="endArrow=none;html=1;rounded=0;fontSize=14;exitX=0;exitY=0.25;exitDx=0;exitDy=0;entryX=1;entryY=0.5;entryDx=0;entryDy=0;" parent="1" source="Z674v17x9XHbPpN-wXhI-14" target="Cv5BwyvgVMftu4bguCgR-10" edge="1">
          <mxGeometry relative="1" as="geometry">
            <mxPoint x="-155" y="-160" as="sourcePoint" />
            <mxPoint x="-220" y="-210" as="targetPoint" />
          </mxGeometry>
        </mxCell>
        <mxCell id="Cv5BwyvgVMftu4bguCgR-14" value="" style="endArrow=none;html=1;rounded=0;fontSize=14;exitX=0;exitY=0.75;exitDx=0;exitDy=0;entryX=1;entryY=0.5;entryDx=0;entryDy=0;" parent="1" source="Z674v17x9XHbPpN-wXhI-14" target="Cv5BwyvgVMftu4bguCgR-11" edge="1">
          <mxGeometry relative="1" as="geometry">
            <mxPoint x="-185" y="-150" as="sourcePoint" />
            <mxPoint x="-230" y="-180" as="targetPoint" />
          </mxGeometry>
        </mxCell>
        <mxCell id="Cv5BwyvgVMftu4bguCgR-15" value="&lt;font style=&quot;font-size: 14px;&quot;&gt;pro_ID&lt;/font&gt;" style="ellipse;whiteSpace=wrap;html=1;align=center;fontStyle=4;" parent="1" vertex="1">
          <mxGeometry x="200" y="780" width="100" height="40" as="geometry" />
        </mxCell>
        <mxCell id="Cv5BwyvgVMftu4bguCgR-17" value="is_work" style="ellipse;whiteSpace=wrap;html=1;align=center;fontSize=14;" parent="1" vertex="1">
          <mxGeometry x="287.5" y="820" width="100" height="40" as="geometry" />
        </mxCell>
        <mxCell id="Cv5BwyvgVMftu4bguCgR-18" value="job" style="ellipse;whiteSpace=wrap;html=1;align=center;fontSize=14;" parent="1" vertex="1">
          <mxGeometry x="457.5" y="820" width="100" height="40" as="geometry" />
        </mxCell>
        <mxCell id="Cv5BwyvgVMftu4bguCgR-19" value="job_add" style="ellipse;whiteSpace=wrap;html=1;align=center;fontSize=14;" parent="1" vertex="1">
          <mxGeometry x="367.5" y="860" width="100" height="40" as="geometry" />
        </mxCell>
        <mxCell id="Cv5BwyvgVMftu4bguCgR-23" value="" style="endArrow=none;html=1;rounded=0;fontSize=14;exitX=0;exitY=0.75;exitDx=0;exitDy=0;entryX=1;entryY=0;entryDx=0;entryDy=0;" parent="1" source="Z674v17x9XHbPpN-wXhI-15" target="Cv5BwyvgVMftu4bguCgR-15" edge="1">
          <mxGeometry relative="1" as="geometry">
            <mxPoint x="317.5" y="690" as="sourcePoint" />
            <mxPoint x="477.5" y="690" as="targetPoint" />
          </mxGeometry>
        </mxCell>
        <mxCell id="Cv5BwyvgVMftu4bguCgR-24" value="" style="endArrow=none;html=1;rounded=0;fontSize=14;exitX=0.25;exitY=1;exitDx=0;exitDy=0;entryX=0.5;entryY=0;entryDx=0;entryDy=0;" parent="1" source="Z674v17x9XHbPpN-wXhI-15" target="Cv5BwyvgVMftu4bguCgR-17" edge="1">
          <mxGeometry relative="1" as="geometry">
            <mxPoint x="337.5" y="780" as="sourcePoint" />
            <mxPoint x="295.185772001606" y="795.7903613070439" as="targetPoint" />
          </mxGeometry>
        </mxCell>
        <mxCell id="Cv5BwyvgVMftu4bguCgR-25" value="" style="endArrow=none;html=1;rounded=0;fontSize=14;exitX=0.5;exitY=1;exitDx=0;exitDy=0;entryX=0.5;entryY=0;entryDx=0;entryDy=0;" parent="1" source="Z674v17x9XHbPpN-wXhI-15" target="Cv5BwyvgVMftu4bguCgR-19" edge="1">
          <mxGeometry relative="1" as="geometry">
            <mxPoint x="372.5" y="790" as="sourcePoint" />
            <mxPoint x="347.5" y="830" as="targetPoint" />
          </mxGeometry>
        </mxCell>
        <mxCell id="Cv5BwyvgVMftu4bguCgR-26" value="" style="endArrow=none;html=1;rounded=0;fontSize=14;exitX=0.75;exitY=1;exitDx=0;exitDy=0;entryX=0;entryY=0;entryDx=0;entryDy=0;" parent="1" source="Z674v17x9XHbPpN-wXhI-15" target="Cv5BwyvgVMftu4bguCgR-18" edge="1">
          <mxGeometry relative="1" as="geometry">
            <mxPoint x="407.5" y="790" as="sourcePoint" />
            <mxPoint x="427.5" y="870" as="targetPoint" />
          </mxGeometry>
        </mxCell>
        <mxCell id="Cv5BwyvgVMftu4bguCgR-27" value="&lt;font style=&quot;font-size: 14px;&quot;&gt;phs_ID&lt;/font&gt;" style="ellipse;whiteSpace=wrap;html=1;align=center;fontStyle=4;" parent="1" vertex="1">
          <mxGeometry x="-390" y="580" width="100" height="40" as="geometry" />
        </mxCell>
        <mxCell id="Cv5BwyvgVMftu4bguCgR-28" value="social_class" style="ellipse;whiteSpace=wrap;html=1;align=center;fontSize=14;" parent="1" vertex="1">
          <mxGeometry x="-310" y="630" width="110" height="40" as="geometry" />
        </mxCell>
        <mxCell id="Cv5BwyvgVMftu4bguCgR-29" value="wealthy_src" style="ellipse;shape=doubleEllipse;margin=3;whiteSpace=wrap;html=1;align=center;fontSize=14;" parent="1" vertex="1">
          <mxGeometry x="-195" y="650" width="100" height="40" as="geometry" />
        </mxCell>
        <mxCell id="Cv5BwyvgVMftu4bguCgR-30" value="" style="endArrow=none;html=1;rounded=0;fontSize=14;exitX=0;exitY=0.75;exitDx=0;exitDy=0;entryX=0.5;entryY=0;entryDx=0;entryDy=0;" parent="1" source="Z674v17x9XHbPpN-wXhI-16" target="Cv5BwyvgVMftu4bguCgR-27" edge="1">
          <mxGeometry relative="1" as="geometry">
            <mxPoint x="-230" y="540" as="sourcePoint" />
            <mxPoint x="-70" y="540" as="targetPoint" />
          </mxGeometry>
        </mxCell>
        <mxCell id="Cv5BwyvgVMftu4bguCgR-31" value="" style="endArrow=none;html=1;rounded=0;fontSize=14;exitX=0.25;exitY=1;exitDx=0;exitDy=0;entryX=0.5;entryY=0;entryDx=0;entryDy=0;" parent="1" source="Z674v17x9XHbPpN-wXhI-16" target="Cv5BwyvgVMftu4bguCgR-28" edge="1">
          <mxGeometry relative="1" as="geometry">
            <mxPoint x="-240" y="560" as="sourcePoint" />
            <mxPoint x="-330" y="590" as="targetPoint" />
          </mxGeometry>
        </mxCell>
        <mxCell id="Cv5BwyvgVMftu4bguCgR-32" value="" style="endArrow=none;html=1;rounded=0;fontSize=14;exitX=0.75;exitY=1;exitDx=0;exitDy=0;entryX=0.5;entryY=0;entryDx=0;entryDy=0;" parent="1" source="Z674v17x9XHbPpN-wXhI-16" target="Cv5BwyvgVMftu4bguCgR-29" edge="1">
          <mxGeometry relative="1" as="geometry">
            <mxPoint x="-210" y="570" as="sourcePoint" />
            <mxPoint x="-245" y="640" as="targetPoint" />
          </mxGeometry>
        </mxCell>
        <mxCell id="Cv5BwyvgVMftu4bguCgR-33" value="&lt;font style=&quot;font-size: 14px;&quot;&gt;cr_ID&lt;/font&gt;" style="ellipse;whiteSpace=wrap;html=1;align=center;fontStyle=4;" parent="1" vertex="1">
          <mxGeometry x="-330" y="-70" width="100" height="40" as="geometry" />
        </mxCell>
        <mxCell id="Cv5BwyvgVMftu4bguCgR-34" value="Type_ofcrime" style="ellipse;whiteSpace=wrap;html=1;align=center;fontSize=14;" parent="1" vertex="1">
          <mxGeometry x="-360" y="-10" width="100" height="40" as="geometry" />
        </mxCell>
        <mxCell id="Cv5BwyvgVMftu4bguCgR-35" value="Crime_details" style="ellipse;whiteSpace=wrap;html=1;align=center;fontSize=14;" parent="1" vertex="1">
          <mxGeometry x="-330" y="50" width="100" height="40" as="geometry" />
        </mxCell>
        <mxCell id="Cv5BwyvgVMftu4bguCgR-36" value="" style="endArrow=none;html=1;rounded=0;fontSize=14;exitX=0.25;exitY=0;exitDx=0;exitDy=0;entryX=1;entryY=1;entryDx=0;entryDy=0;" parent="1" source="Z674v17x9XHbPpN-wXhI-7" target="Cv5BwyvgVMftu4bguCgR-33" edge="1">
          <mxGeometry relative="1" as="geometry">
            <mxPoint x="-185" y="-130" as="sourcePoint" />
            <mxPoint x="-220" y="-130" as="targetPoint" />
          </mxGeometry>
        </mxCell>
        <mxCell id="Cv5BwyvgVMftu4bguCgR-37" value="" style="endArrow=none;html=1;rounded=0;fontSize=14;exitX=0;exitY=0.5;exitDx=0;exitDy=0;entryX=1;entryY=0.5;entryDx=0;entryDy=0;" parent="1" source="Z674v17x9XHbPpN-wXhI-7" target="Cv5BwyvgVMftu4bguCgR-34" edge="1">
          <mxGeometry relative="1" as="geometry">
            <mxPoint x="-165" y="7" as="sourcePoint" />
            <mxPoint x="-234.8142279984022" y="-25.79036130704685" as="targetPoint" />
          </mxGeometry>
        </mxCell>
        <mxCell id="Cv5BwyvgVMftu4bguCgR-38" value="" style="endArrow=none;html=1;rounded=0;fontSize=14;exitX=0;exitY=1;exitDx=0;exitDy=0;entryX=1;entryY=0;entryDx=0;entryDy=0;" parent="1" source="Z674v17x9XHbPpN-wXhI-7" target="Cv5BwyvgVMftu4bguCgR-35" edge="1">
          <mxGeometry relative="1" as="geometry">
            <mxPoint x="-190" y="27" as="sourcePoint" />
            <mxPoint x="-250" y="20" as="targetPoint" />
          </mxGeometry>
        </mxCell>
        <mxCell id="Cv5BwyvgVMftu4bguCgR-39" value="v_SSN" style="ellipse;whiteSpace=wrap;html=1;align=center;fontStyle=4;fontSize=14;" parent="1" vertex="1">
          <mxGeometry x="970" y="-290" width="100" height="40" as="geometry" />
        </mxCell>
        <mxCell id="Cv5BwyvgVMftu4bguCgR-40" value="v_fullname" style="ellipse;whiteSpace=wrap;html=1;align=center;fontSize=14;" parent="1" vertex="1">
          <mxGeometry x="990" y="-240" width="100" height="40" as="geometry" />
        </mxCell>
        <mxCell id="Cv5BwyvgVMftu4bguCgR-43" value="" style="endArrow=none;html=1;rounded=0;fontSize=14;entryX=0;entryY=1;entryDx=0;entryDy=0;exitX=0.75;exitY=0;exitDx=0;exitDy=0;" parent="1" source="Z674v17x9XHbPpN-wXhI-17" target="Cv5BwyvgVMftu4bguCgR-39" edge="1">
          <mxGeometry relative="1" as="geometry">
            <mxPoint x="920" y="-180" as="sourcePoint" />
            <mxPoint x="740" y="-50" as="targetPoint" />
          </mxGeometry>
        </mxCell>
        <mxCell id="Cv5BwyvgVMftu4bguCgR-44" value="" style="endArrow=none;html=1;rounded=0;fontSize=14;entryX=0;entryY=0.5;entryDx=0;entryDy=0;exitX=1;exitY=0.25;exitDx=0;exitDy=0;" parent="1" source="Z674v17x9XHbPpN-wXhI-17" target="Cv5BwyvgVMftu4bguCgR-40" edge="1">
          <mxGeometry relative="1" as="geometry">
            <mxPoint x="935" y="-220" as="sourcePoint" />
            <mxPoint x="994.8142279984177" y="-245.79036130705344" as="targetPoint" />
          </mxGeometry>
        </mxCell>
        <mxCell id="Cv5BwyvgVMftu4bguCgR-45" value="" style="endArrow=none;html=1;rounded=0;fontSize=14;exitX=0;exitY=0;exitDx=0;exitDy=0;entryX=0.5;entryY=1;entryDx=0;entryDy=0;" parent="1" source="Cv5BwyvgVMftu4bguCgR-82" target="AAacwvjYnwPrQC3Xetkk-1" edge="1">
          <mxGeometry relative="1" as="geometry">
            <mxPoint x="950" y="-160" as="sourcePoint" />
            <mxPoint x="440" y="-120" as="targetPoint" />
          </mxGeometry>
        </mxCell>
        <mxCell id="Cv5BwyvgVMftu4bguCgR-46" value="Has" style="shape=rhombus;double=1;perimeter=rhombusPerimeter;whiteSpace=wrap;html=1;align=center;fontSize=14;" parent="1" vertex="1">
          <mxGeometry x="280" y="-90" width="120" height="60" as="geometry" />
        </mxCell>
        <mxCell id="Cv5BwyvgVMftu4bguCgR-52" value="Has" style="shape=rhombus;double=1;perimeter=rhombusPerimeter;whiteSpace=wrap;html=1;align=center;fontSize=14;" parent="1" vertex="1">
          <mxGeometry x="120" y="-30" width="120" height="60" as="geometry" />
        </mxCell>
        <mxCell id="Cv5BwyvgVMftu4bguCgR-57" value="Has" style="shape=rhombus;double=1;perimeter=rhombusPerimeter;whiteSpace=wrap;html=1;align=center;fontSize=14;" parent="1" vertex="1">
          <mxGeometry x="-140" y="320" width="120" height="60" as="geometry" />
        </mxCell>
        <mxCell id="Cv5BwyvgVMftu4bguCgR-61" value="perpetrate" style="shape=rhombus;perimeter=rhombusPerimeter;whiteSpace=wrap;html=1;align=center;fontSize=14;" parent="1" vertex="1">
          <mxGeometry x="-215" y="220" width="120" height="60" as="geometry" />
        </mxCell>
        <mxCell id="Cv5BwyvgVMftu4bguCgR-65" value="Has" style="shape=rhombus;double=1;perimeter=rhombusPerimeter;whiteSpace=wrap;html=1;align=center;fontSize=14;" parent="1" vertex="1">
          <mxGeometry x="50" y="510" width="120" height="60" as="geometry" />
        </mxCell>
        <mxCell id="Cv5BwyvgVMftu4bguCgR-73" style="edgeStyle=orthogonalEdgeStyle;rounded=0;orthogonalLoop=1;jettySize=auto;html=1;exitX=0.5;exitY=1;exitDx=0;exitDy=0;entryX=0.5;entryY=0;entryDx=0;entryDy=0;fontSize=14;shape=link;" parent="1" source="Cv5BwyvgVMftu4bguCgR-70" target="Z674v17x9XHbPpN-wXhI-15" edge="1">
          <mxGeometry relative="1" as="geometry" />
        </mxCell>
        <mxCell id="Cv5BwyvgVMftu4bguCgR-70" value="Has" style="shape=rhombus;double=1;perimeter=rhombusPerimeter;whiteSpace=wrap;html=1;align=center;fontSize=14;" parent="1" vertex="1">
          <mxGeometry x="330" y="550" width="120" height="60" as="geometry" />
        </mxCell>
        <mxCell id="Cv5BwyvgVMftu4bguCgR-74" value="Has" style="shape=rhombus;double=1;perimeter=rhombusPerimeter;whiteSpace=wrap;html=1;align=center;fontSize=14;" parent="1" vertex="1">
          <mxGeometry x="700" y="220" width="120" height="60" as="geometry" />
        </mxCell>
        <mxCell id="Cv5BwyvgVMftu4bguCgR-78" value="Has" style="shape=rhombus;double=1;perimeter=rhombusPerimeter;whiteSpace=wrap;html=1;align=center;fontSize=14;" parent="1" vertex="1">
          <mxGeometry x="600" y="380" width="120" height="60" as="geometry" />
        </mxCell>
        <mxCell id="Cv5BwyvgVMftu4bguCgR-82" value="visit" style="shape=rhombus;perimeter=rhombusPerimeter;whiteSpace=wrap;html=1;align=center;fontSize=14;" parent="1" vertex="1">
          <mxGeometry x="467.5" y="-98.5" width="120" height="60" as="geometry" />
        </mxCell>
        <mxCell id="Cv5BwyvgVMftu4bguCgR-83" style="edgeStyle=orthogonalEdgeStyle;rounded=0;orthogonalLoop=1;jettySize=auto;html=1;exitX=0.5;exitY=1;exitDx=0;exitDy=0;fontSize=14;" parent="1" source="Z674v17x9XHbPpN-wXhI-50" target="Z674v17x9XHbPpN-wXhI-50" edge="1">
          <mxGeometry relative="1" as="geometry" />
        </mxCell>
        <mxCell id="Cv5BwyvgVMftu4bguCgR-88" value="contain" style="shape=rhombus;perimeter=rhombusPerimeter;whiteSpace=wrap;html=1;align=center;fontSize=14;" parent="1" vertex="1">
          <mxGeometry x="640" y="80" width="120" height="60" as="geometry" />
        </mxCell>
        <mxCell id="UA7vnaGqcTCtW74p5Z1f-1" value="&lt;font style=&quot;font-size: 18px;&quot;&gt;M&lt;/font&gt;" style="text;html=1;align=center;verticalAlign=middle;resizable=0;points=[];autosize=1;strokeColor=none;fillColor=none;" parent="1" vertex="1">
          <mxGeometry x="610" y="70" width="40" height="40" as="geometry" />
        </mxCell>
        <mxCell id="UA7vnaGqcTCtW74p5Z1f-2" value="&lt;font style=&quot;font-size: 18px;&quot;&gt;1&lt;/font&gt;" style="text;html=1;align=center;verticalAlign=middle;resizable=0;points=[];autosize=1;strokeColor=none;fillColor=none;" parent="1" vertex="1">
          <mxGeometry x="742" y="70" width="30" height="40" as="geometry" />
        </mxCell>
        <mxCell id="UA7vnaGqcTCtW74p5Z1f-4" value="&lt;font style=&quot;font-size: 18px;&quot;&gt;M&lt;/font&gt;" style="text;html=1;align=center;verticalAlign=middle;resizable=0;points=[];autosize=1;strokeColor=none;fillColor=none;" parent="1" vertex="1">
          <mxGeometry x="-210" y="180" width="40" height="40" as="geometry" />
        </mxCell>
        <mxCell id="UA7vnaGqcTCtW74p5Z1f-5" value="&lt;font style=&quot;font-size: 18px;&quot;&gt;M&lt;/font&gt;" style="text;html=1;align=center;verticalAlign=middle;resizable=0;points=[];autosize=1;strokeColor=none;fillColor=none;" parent="1" vertex="1">
          <mxGeometry x="-112" y="252" width="40" height="40" as="geometry" />
        </mxCell>
        <mxCell id="UA7vnaGqcTCtW74p5Z1f-6" value="&lt;font style=&quot;font-size: 18px;&quot;&gt;M&lt;/font&gt;" style="text;html=1;align=center;verticalAlign=middle;resizable=0;points=[];autosize=1;strokeColor=none;fillColor=none;" parent="1" vertex="1">
          <mxGeometry x="480" y="-43" width="40" height="40" as="geometry" />
        </mxCell>
        <mxCell id="UA7vnaGqcTCtW74p5Z1f-7" value="&lt;font style=&quot;font-size: 18px;&quot;&gt;M&lt;/font&gt;" style="text;html=1;align=center;verticalAlign=middle;resizable=0;points=[];autosize=1;strokeColor=none;fillColor=none;" parent="1" vertex="1">
          <mxGeometry x="485" y="-128.5" width="40" height="40" as="geometry" />
        </mxCell>
        <mxCell id="UA7vnaGqcTCtW74p5Z1f-8" value="&lt;font style=&quot;font-size: 18px;&quot;&gt;M&lt;/font&gt;" style="text;html=1;align=center;verticalAlign=middle;resizable=0;points=[];autosize=1;strokeColor=none;fillColor=none;" parent="1" vertex="1">
          <mxGeometry x="577.5" y="-64" width="40" height="40" as="geometry" />
        </mxCell>
        <mxCell id="UA7vnaGqcTCtW74p5Z1f-10" value="&lt;font style=&quot;font-size: 18px;&quot;&gt;1&lt;/font&gt;" style="text;html=1;align=center;verticalAlign=middle;resizable=0;points=[];autosize=1;strokeColor=none;fillColor=none;" parent="1" vertex="1">
          <mxGeometry x="345" y="-38.5" width="30" height="40" as="geometry" />
        </mxCell>
        <mxCell id="UA7vnaGqcTCtW74p5Z1f-12" value="&lt;font style=&quot;font-size: 18px;&quot;&gt;1&lt;/font&gt;" style="text;html=1;align=center;verticalAlign=middle;resizable=0;points=[];autosize=1;strokeColor=none;fillColor=none;" parent="1" vertex="1">
          <mxGeometry x="225" y="-50" width="30" height="40" as="geometry" />
        </mxCell>
        <mxCell id="UA7vnaGqcTCtW74p5Z1f-13" value="&lt;font style=&quot;font-size: 18px;&quot;&gt;M&lt;/font&gt;" style="text;html=1;align=center;verticalAlign=middle;resizable=0;points=[];autosize=1;strokeColor=none;fillColor=none;" parent="1" vertex="1">
          <mxGeometry x="670" y="200" width="40" height="40" as="geometry" />
        </mxCell>
        <mxCell id="UA7vnaGqcTCtW74p5Z1f-15" value="&lt;font style=&quot;font-size: 18px;&quot;&gt;1&lt;/font&gt;" style="text;html=1;align=center;verticalAlign=middle;resizable=0;points=[];autosize=1;strokeColor=none;fillColor=none;" parent="1" vertex="1">
          <mxGeometry x="-25" y="300" width="30" height="40" as="geometry" />
        </mxCell>
        <mxCell id="UA7vnaGqcTCtW74p5Z1f-18" value="&lt;font style=&quot;font-size: 18px;&quot;&gt;1&lt;/font&gt;" style="text;html=1;align=center;verticalAlign=middle;resizable=0;points=[];autosize=1;strokeColor=none;fillColor=none;" parent="1" vertex="1">
          <mxGeometry x="161" y="487" width="30" height="40" as="geometry" />
        </mxCell>
        <mxCell id="UA7vnaGqcTCtW74p5Z1f-19" value="&lt;font style=&quot;font-size: 18px;&quot;&gt;M&lt;/font&gt;" style="text;html=1;align=center;verticalAlign=middle;resizable=0;points=[];autosize=1;strokeColor=none;fillColor=none;" parent="1" vertex="1">
          <mxGeometry x="403" y="605" width="40" height="40" as="geometry" />
        </mxCell>
        <mxCell id="UA7vnaGqcTCtW74p5Z1f-20" value="&lt;font style=&quot;font-size: 18px;&quot;&gt;1&lt;/font&gt;" style="text;html=1;align=center;verticalAlign=middle;resizable=0;points=[];autosize=1;strokeColor=none;fillColor=none;" parent="1" vertex="1">
          <mxGeometry x="410" y="520" width="30" height="40" as="geometry" />
        </mxCell>
        <mxCell id="UA7vnaGqcTCtW74p5Z1f-21" value="&lt;font style=&quot;font-size: 18px;&quot;&gt;M&lt;/font&gt;" style="text;html=1;align=center;verticalAlign=middle;resizable=0;points=[];autosize=1;strokeColor=none;fillColor=none;" parent="1" vertex="1">
          <mxGeometry x="610" y="350" width="40" height="40" as="geometry" />
        </mxCell>
        <mxCell id="UA7vnaGqcTCtW74p5Z1f-24" value="&lt;font style=&quot;font-size: 18px;&quot;&gt;M&lt;/font&gt;" style="text;html=1;align=center;verticalAlign=middle;resizable=0;points=[];autosize=1;strokeColor=none;fillColor=none;" parent="1" vertex="1">
          <mxGeometry x="605" y="440" width="40" height="40" as="geometry" />
        </mxCell>
        <mxCell id="UA7vnaGqcTCtW74p5Z1f-25" value="&lt;font style=&quot;font-size: 18px;&quot;&gt;M&lt;/font&gt;" style="text;html=1;align=center;verticalAlign=middle;resizable=0;points=[];autosize=1;strokeColor=none;fillColor=none;" parent="1" vertex="1">
          <mxGeometry x="20" y="487" width="40" height="40" as="geometry" />
        </mxCell>
        <mxCell id="UA7vnaGqcTCtW74p5Z1f-26" value="&lt;font style=&quot;font-size: 18px;&quot;&gt;M&lt;/font&gt;" style="text;html=1;align=center;verticalAlign=middle;resizable=0;points=[];autosize=1;strokeColor=none;fillColor=none;" parent="1" vertex="1">
          <mxGeometry x="-165" y="300" width="40" height="40" as="geometry" />
        </mxCell>
        <mxCell id="UA7vnaGqcTCtW74p5Z1f-27" value="&lt;font style=&quot;font-size: 18px;&quot;&gt;M&lt;/font&gt;" style="text;html=1;align=center;verticalAlign=middle;resizable=0;points=[];autosize=1;strokeColor=none;fillColor=none;" parent="1" vertex="1">
          <mxGeometry x="795" y="200" width="40" height="40" as="geometry" />
        </mxCell>
        <mxCell id="UA7vnaGqcTCtW74p5Z1f-28" value="&lt;font style=&quot;font-size: 14px;&quot;&gt;M&lt;/font&gt;" style="text;html=1;align=center;verticalAlign=middle;resizable=0;points=[];autosize=1;strokeColor=none;fillColor=none;" parent="1" vertex="1">
          <mxGeometry x="355" y="-118.5" width="40" height="30" as="geometry" />
        </mxCell>
        <mxCell id="o6N_GSAsdMJtdZ1TjW8--1" value="&lt;font style=&quot;font-size: 18px;&quot;&gt;M&lt;/font&gt;" style="text;html=1;align=center;verticalAlign=middle;resizable=0;points=[];autosize=1;strokeColor=none;fillColor=none;" parent="1" vertex="1">
          <mxGeometry x="97.5" y="-50" width="40" height="40" as="geometry" />
        </mxCell>
        <mxCell id="AAacwvjYnwPrQC3Xetkk-1" value="visit_date" style="ellipse;whiteSpace=wrap;html=1;align=center;fontSize=14;" parent="1" vertex="1">
          <mxGeometry x="387.5" y="-158.5" width="100" height="40" as="geometry" />
        </mxCell>
        <mxCell id="AAacwvjYnwPrQC3Xetkk-2" value="ill_date" style="ellipse;whiteSpace=wrap;html=1;align=center;fontSize=14;" parent="1" vertex="1">
          <mxGeometry x="940" y="150" width="120" height="40" as="geometry" />
        </mxCell>
        <mxCell id="AAacwvjYnwPrQC3Xetkk-3" value="" style="endArrow=none;html=1;rounded=0;fontSize=14;entryX=0.5;entryY=0;entryDx=0;entryDy=0;exitX=0.5;exitY=1;exitDx=0;exitDy=0;" parent="1" source="AAacwvjYnwPrQC3Xetkk-2" target="Z674v17x9XHbPpN-wXhI-9" edge="1">
          <mxGeometry relative="1" as="geometry">
            <mxPoint x="1140" y="64" as="sourcePoint" />
            <mxPoint x="980" y="110" as="targetPoint" />
          </mxGeometry>
        </mxCell>
        <mxCell id="AAacwvjYnwPrQC3Xetkk-4" value="is_safe" style="ellipse;whiteSpace=wrap;html=1;align=center;fontSize=14;" parent="1" vertex="1">
          <mxGeometry x="900" y="310" width="120" height="40" as="geometry" />
        </mxCell>
        <mxCell id="AAacwvjYnwPrQC3Xetkk-5" value="" style="endArrow=none;html=1;rounded=0;fontSize=14;entryX=0.5;entryY=1;entryDx=0;entryDy=0;exitX=0.5;exitY=0;exitDx=0;exitDy=0;" parent="1" source="AAacwvjYnwPrQC3Xetkk-4" target="Z674v17x9XHbPpN-wXhI-9" edge="1">
          <mxGeometry relative="1" as="geometry">
            <mxPoint x="1020" y="190" as="sourcePoint" />
            <mxPoint x="1010" y="240" as="targetPoint" />
          </mxGeometry>
        </mxCell>
        <mxCell id="AAacwvjYnwPrQC3Xetkk-8" value="has_cc" style="ellipse;whiteSpace=wrap;html=1;align=center;fontSize=14;" parent="1" vertex="1">
          <mxGeometry x="640" y="570" width="110" height="40" as="geometry" />
        </mxCell>
        <mxCell id="AAacwvjYnwPrQC3Xetkk-9" value="" style="endArrow=none;html=1;rounded=0;fontSize=14;exitX=0.25;exitY=1;exitDx=0;exitDy=0;entryX=0.5;entryY=0;entryDx=0;entryDy=0;" parent="1" source="Z674v17x9XHbPpN-wXhI-12" target="AAacwvjYnwPrQC3Xetkk-8" edge="1">
          <mxGeometry relative="1" as="geometry">
            <mxPoint x="825" y="550" as="sourcePoint" />
            <mxPoint x="825" y="590" as="targetPoint" />
          </mxGeometry>
        </mxCell>
        <mxCell id="AAacwvjYnwPrQC3Xetkk-11" value="verdict_date" style="ellipse;whiteSpace=wrap;html=1;align=center;fontSize=14;" parent="1" vertex="1">
          <mxGeometry x="-340" y="190" width="110" height="40" as="geometry" />
        </mxCell>
        <mxCell id="AAacwvjYnwPrQC3Xetkk-12" value="" style="endArrow=none;html=1;rounded=0;fontSize=14;exitX=0;exitY=0;exitDx=0;exitDy=0;" parent="1" source="Cv5BwyvgVMftu4bguCgR-61" edge="1">
          <mxGeometry relative="1" as="geometry">
            <mxPoint x="-370" y="180" as="sourcePoint" />
            <mxPoint x="-285" y="230" as="targetPoint" />
          </mxGeometry>
        </mxCell>
      </root>
    </mxGraphModel>
  </diagram>
</mxfile>
